<?xml version="1.0" encoding="UTF-8"?>
<svg version="1.1" xmlns="http://www.w3.org/2000/svg" width="512" height="512">
<path d="M0 0 C62.37 0 124.74 0 189 0 C189.33 26.07 189.66 52.14 190 79 C208.86943443 97.86943443 243.31678273 81.65790747 270 82 C270 192.88 270 303.76 270 418 C180.9 418 91.8 418 0 418 C0 280.06 0 142.12 0 0 Z M30 28 C29.38188404 31.30616654 29.38188404 31.30616654 29.46655273 35.17773438 C29.45793716 35.90487137 29.44932159 36.63200836 29.44044495 37.38117981 C29.41773405 39.78573152 29.42453208 42.18912269 29.43359375 44.59375 C29.42836061 46.26379748 29.42208527 47.933842 29.41481018 49.60388184 C29.40439674 53.1043895 29.40898103 56.6044909 29.42358398 60.10498047 C29.44077892 64.59468926 29.41727395 69.08311918 29.38209438 73.57268524 C29.36015258 77.02138781 29.36155383 80.4697828 29.3698597 83.91853333 C29.37068089 85.57397363 29.36378537 87.22943614 29.34908867 88.8848114 C29.33169932 91.19810017 29.34613377 93.50907093 29.36889648 95.82226562 C29.36985825 97.13892212 29.37082001 98.45557861 29.37181091 99.81213379 C29.69171435 103.1027211 29.69171435 103.1027211 32.11305237 104.92434692 C35.52550064 106.19579724 38.17890963 106.38093456 41.82226562 106.38818359 C42.48796066 106.39344055 43.1536557 106.39869751 43.83952332 106.40411377 C46.02867456 106.41726183 48.21709203 106.40859481 50.40625 106.3984375 C51.93412413 106.40045975 53.46199732 106.40337244 54.98986816 106.40713501 C58.18751237 106.4115513 61.38490467 106.40514992 64.58251953 106.39111328 C68.6748688 106.37402156 72.76662776 106.3838665 76.85895538 106.40183067 C80.01259789 106.41268745 83.16610116 106.40921354 86.31974792 106.4014473 C87.82838512 106.39945051 89.33703508 106.40188621 90.84565735 106.40888596 C92.95668878 106.41653196 95.06677322 106.40485374 97.17773438 106.38818359 C98.97712463 106.38460342 98.97712463 106.38460342 100.81286621 106.38095093 C104.30928549 105.9630318 106.19965089 105.09850151 109 103 C110.58270205 99.83459589 110.09376764 96.43066566 110.0703125 92.95703125 C110.07890141 91.30923425 110.08937907 89.66144622 110.1015625 88.01367188 C110.1182175 85.41720665 110.12510049 82.82273557 110.09960938 80.22631836 C109.97791771 65.74639258 109.97791771 65.74639258 112.55029297 61.35107422 C114.28063807 59.63595078 115.97587473 58.33933927 118 57 C120.90988177 53.12015765 121.91746056 49.86982673 122 45 C120.67243691 40.56925818 118.70300138 37.16173069 114.875 34.5 C112.24493513 32.84581133 112.24493513 32.84581133 110 33 C109.9175 32.236875 109.835 31.47375 109.75 30.6875 C108.81078595 27.32198298 108.01024006 26.71193247 105 25 C101.75729857 24.54484329 101.75729857 24.54484329 98.09179688 24.61181641 C97.40513443 24.60655945 96.71847198 24.60130249 96.01100159 24.59588623 C93.74668468 24.58270846 91.48307376 24.59141587 89.21875 24.6015625 C87.64221054 24.59954111 86.065672 24.59662913 84.48913574 24.59286499 C81.18716518 24.58844467 77.8854383 24.59486312 74.58349609 24.60888672 C70.35314283 24.62597864 66.12336058 24.61613587 61.89302826 24.59816933 C58.63820094 24.58732348 55.38350878 24.59078146 52.12867737 24.5985527 C50.56897412 24.60055251 49.00925857 24.59810314 47.4495697 24.59111404 C45.26878403 24.58348613 43.08892022 24.59512125 40.90820312 24.61181641 C39.66784302 24.61420319 38.42748291 24.61658997 37.14953613 24.61904907 C33.67231362 25.03963518 32.24414585 25.30358695 30 28 Z M131.2900238 61.36602783 C129.79769667 62.99022184 129.79769667 62.99022184 129.5625 65.5 C129.77636199 68.05351534 129.77636199 68.05351534 131.50585938 69.62695312 C135.03792729 71.57138832 138.41069863 71.46772933 142.34375 71.46875 C143.14985718 71.47636353 143.95596436 71.48397705 144.78649902 71.49182129 C146.48768013 71.50260754 148.18892738 71.50548137 149.89013672 71.50097656 C152.4916815 71.50000311 155.0902864 71.54165893 157.69140625 71.5859375 C159.34634803 71.59114399 161.00130004 71.5938327 162.65625 71.59375 C163.43238647 71.61014526 164.20852295 71.62654053 165.00817871 71.64343262 C169.0346939 71.59193353 170.62884398 71.37345598 173.52148438 68.46289062 C174.00939453 67.65013672 174.49730469 66.83738281 175 66 C173.88145414 62.27385847 173.88145414 62.27385847 171 60 C168.19097896 59.8765923 165.40772276 59.81159205 162.59765625 59.796875 C161.76415146 59.79117493 160.93064667 59.78547485 160.07188416 59.77960205 C158.30745718 59.77014956 156.54301254 59.76361708 154.77856445 59.75976562 C152.07667365 59.75005096 149.3755406 59.71902696 146.67382812 59.6875 C144.96094203 59.68097087 143.24805048 59.67572004 141.53515625 59.671875 C140.32098778 59.6533548 140.32098778 59.6533548 139.08229065 59.63446045 C134.89284227 59.53163381 134.89284227 59.53163381 131.2900238 61.36602783 Z M131 96 C129.83551119 98.90351124 129.83551119 98.90351124 130 102 C131.50715289 104.08130637 132.71226437 104.85613218 135 106 C136.5217629 106.0986141 138.04776292 106.13503981 139.57270813 106.14044189 C140.53585937 106.14615204 141.49901062 106.15186218 142.49134827 106.15774536 C143.55163742 106.15886322 144.61192657 106.15998108 145.7043457 106.16113281 C147.37522751 106.16858017 147.37522751 106.16858017 149.0798645 106.17617798 C152.77850962 106.19082721 156.47711184 106.1976063 160.17578125 106.203125 C162.73927309 106.20887429 165.30276491 106.21463205 167.86625671 106.22039795 C172.55892804 106.22957029 177.25158214 106.23586732 181.9442609 106.2388947 C188.84930892 106.2433738 195.75415882 106.26091374 202.65914661 106.2898953 C208.64029767 106.31412723 214.62135511 106.32183957 220.60256004 106.32357025 C223.1467007 106.32660118 225.69084043 106.33464444 228.23494911 106.34775543 C231.79260955 106.3647804 235.34978623 106.36294404 238.9074707 106.35644531 C239.96168716 106.3656601 241.01590363 106.37487488 242.10206604 106.3843689 C249.06298053 106.40018324 249.06298053 106.40018324 255 103 C256.1576585 101.12042756 256.1576585 101.12042756 256 99 C254.2426201 95.92458518 253.42054006 95.14018002 250 94 C248.45050214 93.9066666 246.89730434 93.86941613 245.34500122 93.86628723 C244.38888947 93.86202225 243.43277771 93.85775726 242.44769287 93.85336304 C240.87667816 93.85404282 240.87667816 93.85404282 239.27392578 93.85473633 C237.61745529 93.84969841 237.61745529 93.84969841 235.92752075 93.84455872 C232.26677331 93.83503808 228.60607156 93.83310503 224.9453125 93.83203125 C222.40566997 93.82881942 219.86602763 93.82545541 217.3263855 93.82194519 C211.99834693 93.81595112 206.67032545 93.81406282 201.34228516 93.81469727 C195.18760201 93.81529786 189.03300656 93.80474925 182.87834561 93.7889536 C176.9543344 93.77429259 171.03034994 93.77070947 165.10631943 93.77130699 C162.58730588 93.7701255 160.0682917 93.76569432 157.5492897 93.75797462 C154.02773992 93.74819332 150.5064166 93.75104558 146.98486328 93.75708008 C145.9415686 93.75146057 144.89827393 93.74584106 143.82336426 93.74005127 C142.86161285 93.74424576 141.89986145 93.74844025 140.90896606 93.75276184 C140.07679628 93.75221707 139.2446265 93.75167231 138.38723946 93.75111103 C135.58718601 94.04303919 133.49941846 94.70564015 131 96 Z M31.08039856 124.08039856 C29.40039888 127.06534313 29.61807215 129.68154639 29.61181641 133.0859375 C29.60655945 133.80332092 29.60130249 134.52070435 29.59588623 135.25982666 C29.58267955 137.63177242 29.59142624 140.00304738 29.6015625 142.375 C29.59954195 144.02262501 29.59663066 145.67024915 29.59286499 147.31787109 C29.58844075 150.77124546 29.59487579 154.22438706 29.60888672 157.67773438 C29.62597882 162.1066236 29.61613815 166.53496746 29.59816933 170.96383667 C29.5873341 174.36617144 29.59077659 177.76837669 29.5985527 181.17071533 C29.60055544 182.80381332 29.59809284 184.43692302 29.59111404 186.07000732 C29.58350366 188.35167638 29.59509691 190.63245952 29.61181641 192.9140625 C29.61420319 194.2129541 29.61658997 195.5118457 29.61904907 196.85009766 C29.78314438 199.90488841 29.78314438 199.90488841 31.08811951 201.9176178 C34.03963624 203.58857432 36.60584938 203.38979642 39.97827148 203.40405273 C41.03730682 203.41434761 41.03730682 203.41434761 42.11773682 203.42485046 C44.45239352 203.4431569 46.78638065 203.43927563 49.12109375 203.43359375 C50.7439038 203.43815391 52.36671192 203.44345899 53.98951721 203.44947815 C57.39161013 203.45841691 60.79346841 203.45597777 64.19555664 203.44604492 C68.55496224 203.43455729 72.91355759 203.454759 77.27285671 203.48396206 C80.62463017 203.50231104 83.97620902 203.5020342 87.3280201 203.49632454 C88.93518269 203.49617115 90.54235832 203.50223037 92.14947319 203.51461601 C94.39760979 203.52949956 96.64424431 203.51887034 98.89233398 203.50170898 C100.17124008 203.50154282 101.45014618 203.50137665 102.76780701 203.50120544 C106.05813093 203.24780089 106.05813093 203.24780089 108.41903687 201.20611572 C110.81196532 197.86696317 110.42897709 194.55341462 110.29296875 190.61328125 C110.28308705 188.93555463 110.27467062 187.25781886 110.26757812 185.58007812 C110.23453532 182.95060499 110.18780307 180.3232254 110.11352539 177.69458008 C109.74459341 162.91920244 109.74459341 162.91920244 112.99560547 157.94921875 C115.44140625 155.58203125 115.44140625 155.58203125 117.88891602 153.74145508 C120.86347024 151.28771444 121.5517993 148.87193684 122.046875 145.1328125 C121.95152479 140.79437779 120.50429506 137.61466454 117.5625 134.45703125 C114.93999345 132.11644416 113.58281003 131 110 131 C109.87625 130.05125 109.7525 129.1025 109.625 128.125 C109.28312823 124.91332809 109.28312823 124.91332809 107 123 C103.82244411 122.6847613 103.82244411 122.6847613 100.02758789 122.7253418 C99.31035049 122.72023087 98.5931131 122.71511993 97.85414124 122.70985413 C95.47689531 122.69592371 93.0999382 122.69691748 90.72265625 122.69921875 C89.07360221 122.6953336 87.42454917 122.69099931 85.77549744 122.68623352 C82.31620035 122.67876382 78.8570053 122.67906791 75.39770508 122.68432617 C70.96096638 122.69012078 66.52464515 122.67319389 62.0879755 122.6499815 C58.68136648 122.63526103 55.27485838 122.63437016 51.86822319 122.63749123 C50.23232636 122.63697713 48.59642401 122.6317228 46.96055794 122.62167931 C44.67403039 122.60936498 42.38832075 122.61607579 40.10180664 122.62768555 C38.79989883 122.62705612 37.49799103 122.6264267 36.15663147 122.6257782 C33.09711455 122.78337151 33.09711455 122.78337151 31.08039856 124.08039856 Z M131 159 C129.91776634 161.91004903 129.91776634 161.91004903 130 165 C131.78779658 167.59230504 132.96002815 167.98667605 136 169 C138.10482092 169.09935332 140.21267129 169.13828378 142.31982422 169.14526367 C143.6248288 169.15164352 144.92983337 169.15802338 146.27438354 169.16459656 C147.70115115 169.16612537 149.12791926 169.16723926 150.5546875 169.16796875 C152.01815829 169.17118245 153.48162876 169.17454661 154.94509888 169.17805481 C158.01337427 169.18404298 161.08162152 169.18589505 164.14990234 169.18530273 C168.07627134 169.18520118 172.00245923 169.19884794 175.92878532 169.21607494 C178.95200424 169.22720918 181.97517958 169.2292215 184.9984169 169.22869301 C186.44565581 169.22987119 187.89289591 169.23428387 189.34011459 169.24202538 C191.3671815 169.25185258 193.39430157 169.24767593 195.42138672 169.24291992 C196.57371796 169.24434494 197.72604919 169.24576996 198.91329956 169.24723816 C202.05545611 168.99555808 204.23434407 168.50478613 207 167 C208.08223366 164.08995097 208.08223366 164.08995097 208 161 C206.27773504 157.75150023 206.27773504 157.75150023 203 157 C200.82864747 156.9004121 198.65433683 156.86170304 196.48071289 156.85473633 C195.49482933 156.84969841 195.49482933 156.84969841 194.48902893 156.84455872 C192.31688547 156.83506176 190.14481918 156.8331063 187.97265625 156.83203125 C186.46194934 156.82881799 184.95124275 156.82545387 183.4405365 156.82194519 C180.27390827 156.81595721 177.10730732 156.81410497 173.94067383 156.81469727 C169.88417247 156.81479891 165.82784604 156.80114249 161.77138615 156.78392506 C158.65127255 156.7728041 155.53120125 156.77077808 152.41106987 156.77130699 C150.91555617 156.77012718 149.42004138 156.76570534 147.9245472 156.75797462 C145.83246746 156.7481719 143.74076756 156.75105359 141.64868164 156.75708008 C140.45860001 156.75565506 139.26851837 156.75423004 138.04237366 156.75276184 C135.088478 156.99280985 133.40219512 157.2917441 131 159 Z M130 195 C129.41666667 197.5 129.41666667 197.5 130 200 C131.62864258 202.17133354 132.51459473 202.91670969 135.21643734 203.38031673 C136.08602361 203.38274663 136.95560987 203.38517653 137.85154724 203.38768005 C138.85117493 203.39758469 139.85080261 203.40748932 140.88072205 203.41769409 C141.97638992 203.41319244 143.0720578 203.4086908 144.20092773 203.40405273 C145.35561554 203.41091599 146.51030334 203.41777924 147.69998169 203.42485046 C151.52797644 203.44319531 155.35556435 203.43926984 159.18359375 203.43359375 C161.16723179 203.43700037 163.15087002 203.440414 165.13450581 203.44494683 C171.37267463 203.45899957 177.61070652 203.45742484 183.84887695 203.44604492 C190.284311 203.43456456 196.71932826 203.44863582 203.15470737 203.4754414 C208.6800799 203.4975947 214.20532157 203.50423661 219.73073536 203.49836498 C223.03076131 203.49499302 226.33046063 203.49912943 229.63046074 203.51461601 C233.31051737 203.52945153 236.9896505 203.51890238 240.66967773 203.50170898 C241.76332138 203.51137695 242.85696503 203.52104492 243.98374939 203.53100586 C244.9861969 203.52117172 245.98864441 203.51133759 247.02146912 203.50120544 C247.89143241 203.50099616 248.7613957 203.50078688 249.65772152 203.50057125 C252.80081019 202.82885786 254.03337229 201.48929399 256 199 C256.08805146 196.3566226 256.08805146 196.3566226 255 194 C251.76999563 191.84666375 250.90866617 191.74816602 247.18641663 191.73930359 C246.19520309 191.73221878 245.20398956 191.72513397 244.18273926 191.71783447 C243.09642212 191.72031189 242.01010498 191.72278931 240.89086914 191.7253418 C239.17346779 191.7176754 239.17346779 191.7176754 237.42137146 191.70985413 C233.62591364 191.69592159 229.83063665 191.69691765 226.03515625 191.69921875 C223.4034366 191.69533389 220.77171759 191.69099966 218.13999939 191.68623352 C212.61943959 191.67801762 207.09893095 191.67893054 201.57836914 191.68432617 C195.19753788 191.69036672 188.81692709 191.67805365 182.43613344 191.6567561 C176.29745427 191.63702015 170.15887824 191.63396585 164.02017021 191.63749123 C161.40822265 191.63697685 158.79627166 191.63171734 156.18434334 191.62167931 C152.53556332 191.60937803 148.88729685 191.61606908 145.23852539 191.62768555 C144.15423248 191.62004181 143.06993958 191.61239807 141.95278931 191.60452271 C140.95875595 191.61153702 139.9647226 191.61855133 138.94056702 191.6257782 C138.07797807 191.62561046 137.21538912 191.62544271 136.32666111 191.62526989 C133.46900468 192.08552167 132.08517224 193.0188064 130 195 Z M30 223 C29.24364075 226.29876935 29.24364075 226.29876935 29.36889648 230.17773438 C29.36174118 230.90487137 29.35458588 231.63200836 29.34721375 232.38117981 C29.33029741 234.78600802 29.3497438 237.18897951 29.37109375 239.59375 C29.37026531 241.26379552 29.36780686 242.93384096 29.36378479 244.60388184 C29.36092481 248.10449762 29.37564673 251.60447428 29.40307617 255.10498047 C29.43715996 259.59457818 29.43114303 264.08303282 29.4124136 268.57268524 C29.40185037 272.02139836 29.41077512 275.46984499 29.42579842 278.91853333 C29.43098572 280.5739513 29.43049178 282.22939705 29.42425346 283.8848114 C29.41880914 286.19790587 29.43914797 288.50935824 29.46655273 290.82226562 C29.47275131 292.13892212 29.47894989 293.45557861 29.4853363 294.81213379 C29.72198919 297.99844333 29.72198919 297.99844333 31.60256958 299.9233551 C34.8152592 301.36611893 37.36931805 301.38866914 40.89233398 301.40405273 C41.57739014 301.41091599 42.26244629 301.41777924 42.96826172 301.42485046 C45.22775125 301.44311816 47.48654637 301.43928121 49.74609375 301.43359375 C51.3202385 301.43815575 52.89438126 301.44346137 54.46852112 301.44947815 C57.76628718 301.45840927 61.06381108 301.45598643 64.36157227 301.44604492 C68.58297721 301.43455769 72.80354535 301.45476213 77.02484035 301.48396206 C80.27542918 301.50232899 83.52581768 301.50203063 86.77644539 301.49632454 C88.33254228 301.49617137 89.88865278 301.50221223 91.44470024 301.51461601 C93.6230875 301.52953377 95.79993175 301.51884555 97.97827148 301.50170898 C99.21641098 301.50154282 100.45455048 301.50137665 101.73020935 301.50120544 C105.62970545 300.90347645 107.3003363 299.84484496 110 297 C110.43074013 293.99038071 110.55931357 291.5392299 110.4609375 288.54296875 C110.45789651 286.85612052 110.45530655 285.16927143 110.453125 283.48242188 C110.41977578 280.83581808 110.37505113 278.18992854 110.31933594 275.54370117 C110.05772547 260.63329615 110.05772547 260.63329615 112.51074219 256.38134766 C114.3828125 254.55078125 114.3828125 254.55078125 116.24658203 253.24731445 C119.40167127 251.00290469 120.90596316 247.64199107 122 244 C122 238.56112736 120.48631892 235.14589277 117 231 C115.96875 230.484375 114.9375 229.96875 113.875 229.4375 C110.36561068 227.68280534 110.25157552 226.57593006 109 223 C105.63729808 219.63248077 102.8374606 219.62089321 98.19946289 219.61181641 C97.52416031 219.60655945 96.84885773 219.60130249 96.15309143 219.59588623 C93.92604273 219.58270824 91.69971193 219.5914169 89.47265625 219.6015625 C87.92093265 219.59954088 86.36920998 219.59662871 84.81748962 219.59286499 C81.56679226 219.58844444 78.31634239 219.59486296 75.06567383 219.60888672 C70.90491777 219.62596441 66.74474288 219.61614507 62.58400822 219.59816933 C59.37975207 219.58731191 56.17563295 219.59078701 52.9713726 219.5985527 C51.43761564 219.60055005 49.90384613 219.5981118 48.37010384 219.59111404 C46.2230463 219.58346862 44.07692007 219.59514622 41.92993164 219.61181641 C40.70955704 219.61420319 39.48918243 219.61658997 38.23182678 219.61904907 C34.5810032 220.04938916 32.72424684 220.51111514 30 223 Z M131.09204102 256.36801147 C129.52039005 258.71674775 129.58549874 260.2366583 130 263 C131.04367242 264.76648174 131.04367242 264.76648174 133 266 C136.19094589 266.45844902 136.19094589 266.45844902 139.90234375 266.38818359 C140.94915817 266.39606903 140.94915817 266.39606903 142.01712036 266.40411377 C144.3241412 266.41731846 146.63047213 266.40857455 148.9375 266.3984375 C150.54028455 266.40045811 152.14306821 266.40336945 153.74584961 266.40713501 C157.1050695 266.41155898 160.4640501 266.40512513 163.82324219 266.39111328 C168.13106839 266.37402116 172.4383339 266.38386198 176.74613953 266.40183067 C180.05582918 266.41266666 183.3653857 266.40922307 186.67507935 266.4014473 C188.26351996 266.39944477 189.85197263 266.40190643 191.44039917 266.40888596 C193.65981096 266.41649763 195.87831234 266.40490145 198.09765625 266.38818359 C199.36101807 266.38579681 200.62437988 266.38341003 201.92602539 266.38095093 C204.96876647 266.25269447 204.96876647 266.25269447 206.90795898 264.63198853 C208.47960995 262.28325225 208.41450126 260.7633417 208 258 C206.95632758 256.23351826 206.95632758 256.23351826 205 255 C201.80905411 254.54155098 201.80905411 254.54155098 198.09765625 254.61181641 C197.05084183 254.60393097 197.05084183 254.60393097 195.98287964 254.59588623 C193.6758588 254.58268154 191.36952787 254.59142545 189.0625 254.6015625 C187.45971545 254.59954189 185.85693179 254.59663055 184.25415039 254.59286499 C180.8949305 254.58844102 177.5359499 254.59487487 174.17675781 254.60888672 C169.86893161 254.62597884 165.5616661 254.61613802 161.25386047 254.59816933 C157.94417082 254.58733334 154.6346143 254.59077693 151.32492065 254.5985527 C149.73648004 254.60055523 148.14802737 254.59809357 146.55960083 254.59111404 C144.34018904 254.58350237 142.12168766 254.59509855 139.90234375 254.61181641 C138.63898193 254.61420319 137.37562012 254.61658997 136.07397461 254.61904907 C133.03123353 254.74730553 133.03123353 254.74730553 131.09204102 256.36801147 Z M131.18923759 291.33156204 C129.69671023 293.07431305 129.69671023 293.07431305 130.0625 296.0625 C130.67877134 299.05021493 130.67877134 299.05021493 132.75539494 300.16645908 C135.27016338 301.10032599 137.17172081 301.25941233 139.85118103 301.27415466 C140.82549576 301.28412979 141.79981049 301.29410492 142.8036499 301.30438232 C144.39732391 301.30537933 144.39732391 301.30537933 146.02319336 301.30639648 C147.14716019 301.31472 148.27112701 301.32304352 149.42915344 301.33161926 C153.14941863 301.35574081 156.86950863 301.36449344 160.58984375 301.37109375 C163.17289789 301.38005728 165.75595148 301.38917907 168.33900452 301.39845276 C173.75523492 301.41495039 179.17139463 301.42267759 184.58764648 301.42553711 C190.84420584 301.42917389 197.1002751 301.45908212 203.35668463 301.50094169 C209.38058542 301.53982989 215.4042145 301.55112986 221.42825508 301.55226326 C223.98915836 301.55647511 226.55006171 301.56894771 229.11088371 301.58978081 C232.69016316 301.616585 236.26808412 301.61190147 239.84741211 301.59936523 C241.43804977 301.62161667 241.43804977 301.62161667 243.06082153 301.64431763 C249.21812062 301.67955655 249.21812062 301.67955655 254.19703674 298.46253967 C254.79201462 297.64990158 255.38699249 296.83726349 256 296 C254.91215032 292.75016865 254.91215032 292.75016865 253 290 C251.45076298 289.89761784 249.89687625 289.86480577 248.3442688 289.85955811 C246.83416229 289.85099289 246.83416229 289.85099289 245.29354858 289.84225464 C243.62287827 289.84057785 243.62287827 289.84057785 241.91845703 289.83886719 C240.75270142 289.83390228 239.5869458 289.82893738 238.38586426 289.82382202 C235.17920684 289.81168865 231.97258593 289.80424872 228.76590967 289.79981136 C226.09192605 289.7959013 223.41794785 289.78974507 220.74396789 289.7839005 C215.15667731 289.77207892 209.5693967 289.76454845 203.98209488 289.7611053 C196.74874785 289.75662375 189.5155897 289.73907413 182.28230011 289.7101047 C176.6967127 289.68850852 171.1111785 289.67840212 165.52554977 289.67706418 C162.18699409 289.67601459 158.84865668 289.66863824 155.51013565 289.65224457 C151.78672064 289.63526567 148.06376961 289.63704451 144.34033203 289.64355469 C143.23060028 289.6343399 142.12086853 289.62512512 140.97750854 289.6156311 C139.96513123 289.62120026 138.95275391 289.62676941 137.90969849 289.63250732 C136.58841289 289.63030748 136.58841289 289.63030748 135.24043465 289.6280632 C132.9353923 289.83710695 132.9353923 289.83710695 131.18923759 291.33156204 Z M31.08712769 319.08039856 C29.39732989 322.06416793 29.61807855 324.67806458 29.61181641 328.0859375 C29.60655945 328.80332092 29.60130249 329.52070435 29.59588623 330.25982666 C29.58267955 332.63177242 29.59142624 335.00304738 29.6015625 337.375 C29.59954195 339.02262501 29.59663066 340.67024915 29.59286499 342.31787109 C29.58844075 345.77124546 29.59487579 349.22438706 29.60888672 352.67773438 C29.62597882 357.1066236 29.61613815 361.53496746 29.59816933 365.96383667 C29.5873341 369.36617144 29.59077659 372.76837669 29.5985527 376.17071533 C29.60055544 377.80381332 29.59809284 379.43692302 29.59111404 381.07000732 C29.58350366 383.35167638 29.59509691 385.63245952 29.61181641 387.9140625 C29.61420319 389.2129541 29.61658997 390.5118457 29.61904907 391.85009766 C29.78430168 394.90364805 29.78430168 394.90364805 31.08139038 396.9176178 C34.06395607 398.60023003 36.68219262 398.38989422 40.0859375 398.40405273 C41.16201263 398.41434761 41.16201263 398.41434761 42.25982666 398.42485046 C44.63175227 398.44315598 47.0030189 398.43927627 49.375 398.43359375 C51.0226259 398.43815344 52.67024989 398.44345838 54.31787109 398.44947815 C57.77123745 398.45841635 61.22437263 398.45597779 64.67773438 398.44604492 C69.1067355 398.43454816 73.5349402 398.45477333 77.96383667 398.48396206 C81.36618124 398.50229263 84.76833379 398.50203805 88.17071533 398.49632454 C89.80382404 398.49617097 91.43694547 398.50224468 93.07000732 398.51461601 C95.35187016 398.52946756 97.63224672 398.51889452 99.9140625 398.50170898 C101.8623999 398.50145973 101.8623999 398.50145973 103.85009766 398.50120544 C107.04419208 398.29352512 107.04419208 398.29352512 108.92477417 396.20611572 C110.59837616 392.77226995 110.29944139 389.3426462 110.1953125 385.61328125 C110.18833839 383.93555329 110.18318873 382.25781693 110.1796875 380.58007812 C110.15912665 377.95049221 110.12527706 375.32342264 110.05859375 372.69458008 C109.72504561 357.94480347 109.72504561 357.94480347 113 352.94921875 C115.4453125 350.58203125 115.4453125 350.58203125 117.89111328 348.74145508 C120.86312969 346.28725352 121.55199096 343.87048929 122.046875 340.1328125 C121.95152479 335.79437779 120.50429506 332.61466454 117.5625 329.45703125 C114.93999345 327.11644416 113.58281003 326 110 326 C109.896875 325.05125 109.79375 324.1025 109.6875 323.125 C109.31460705 319.70892499 109.31460705 319.70892499 106 318 C102.763752 317.68716029 102.763752 317.68716029 99.00585938 317.7253418 C98.29822952 317.72023087 97.59059967 317.71511993 96.86152649 317.70985413 C94.52218167 317.69595254 92.18313122 317.69691507 89.84375 317.69921875 C88.21854543 317.69533252 86.59334188 317.690998 84.96813965 317.68623352 C81.56189684 317.6787704 78.15575768 317.67906352 74.74951172 317.68432617 C70.38118064 317.69012525 66.01327295 317.67317995 61.6450119 317.6499815 C58.28901686 317.63526229 54.93312426 317.63436989 51.57710266 317.63749123 C49.96632548 317.63697724 48.35554269 317.631725 46.74479675 317.62167931 C44.4942965 317.609365 42.24462722 317.61607528 39.99414062 317.62768555 C38.71301392 317.62705612 37.43188721 317.6264267 36.11193848 317.6257782 C33.09132658 317.78681088 33.09132658 317.78681088 31.08712769 319.08039856 Z M131.06370544 354.33087158 C129.71890062 356.10072186 129.71890062 356.10072186 130.0625 359.0625 C130.68296671 362.0229365 130.68296671 362.0229365 132.64503479 363.16642761 C135.72411547 364.25631065 138.34911235 364.26194237 141.61694336 364.2746582 C142.2727388 364.27976913 142.92853424 364.28488007 143.60420227 364.29014587 C145.7661763 364.30401501 147.92783059 364.3030872 150.08984375 364.30078125 C151.59672666 364.30466965 153.10360849 364.30900462 154.61048889 364.31376648 C157.76697342 364.3212229 160.92334608 364.32094163 164.07983398 364.31567383 C168.119499 364.30987979 172.15870543 364.32681101 176.19829464 364.3500185 C179.30988734 364.36476935 182.42136994 364.36562573 185.53299141 364.36250877 C187.02209952 364.3630213 188.51121389 364.36824629 190.00028801 364.37832069 C192.08504687 364.39069459 194.16891686 364.38388883 196.25366211 364.37231445 C197.43850693 364.37294388 198.62335175 364.3735733 199.84410095 364.3742218 C203.28961542 363.96565784 205.19615078 362.9922157 208 361 C207.74438677 358.6568787 207.40729228 356.32156597 207 354 C204.07347092 352.53673546 201.47915161 352.85649837 198.21118164 352.83886719 C197.16458626 352.83141983 197.16458626 352.83141983 196.09684753 352.82382202 C193.78460715 352.80919542 191.47243533 352.80239813 189.16015625 352.796875 C187.55594378 352.79112461 185.95173134 352.78536686 184.34751892 352.77960205 C180.98240844 352.7690911 177.61732186 352.76324884 174.25219727 352.75976562 C169.9365512 352.75427615 165.62121988 352.73023908 161.30567265 352.70179367 C157.99172537 352.68318794 154.67785428 352.67796284 151.36385918 352.67642975 C149.77261061 352.67339875 148.18136353 352.66535518 146.59016609 352.65224457 C144.36593647 352.6352242 142.14248088 352.63705384 139.91821289 352.64355469 C138.65183487 352.63990906 137.38545685 352.63626343 136.08070374 352.63250732 C133.03730113 352.75348643 133.03730113 352.75348643 131.06370544 354.33087158 Z M131.28977966 388.86630249 C129.75365408 390.95976718 129.75365408 390.95976718 130.125 393.625 C130.86467913 396.14405125 130.86467913 396.14405125 133 398 C135.19800926 398.30961442 135.19800926 398.30961442 137.77598572 398.26742554 C139.28815422 398.28022049 139.28815422 398.28022049 140.83087158 398.29327393 C141.94105652 398.29236755 143.05124146 398.29146118 144.19506836 398.29052734 C145.36097 398.29724457 146.52687164 398.30396179 147.72810364 398.31088257 C151.59872651 398.32994764 155.46917679 398.33379098 159.33984375 398.3359375 C161.34326979 398.34073731 163.34669587 398.34554021 165.3501206 398.35085833 C171.65196499 398.36715317 177.95375221 398.37202627 184.25561523 398.37060547 C190.76089814 398.36940357 197.26584951 398.39051217 203.77104849 398.4220928 C209.35242176 398.44822506 214.93368656 398.45897407 220.51512057 398.45769465 C223.85035965 398.45718412 227.18523707 398.4647456 230.52042961 398.48405075 C234.23908179 398.50356045 237.95687221 398.49793129 241.67553711 398.48583984 C243.33777817 398.50269836 243.33777817 398.50269836 245.03359985 398.51989746 C246.04453201 398.51150848 247.05546417 398.50311951 248.09703064 398.49447632 C249.41636801 398.49611062 249.41636801 398.49611062 250.76235867 398.49777794 C253.15724454 398.17977367 253.15724454 398.17977367 254.81424809 396.13315773 C256.23214829 394.02347429 256.23214829 394.02347429 255.875 391.375 C255.1432514 388.67012227 255.1432514 388.67012227 252 387 C249.7359595 386.6936066 249.7359595 386.6936066 247.18641663 386.73257446 C246.19520309 386.72404449 245.20398956 386.71551453 244.18273926 386.70672607 C242.55326355 386.70808563 242.55326355 386.70808563 240.89086914 386.70947266 C239.74593491 386.70275543 238.60100067 386.69603821 237.42137146 386.68911743 C233.6259226 386.67007529 229.83064995 386.6662102 226.03515625 386.6640625 C223.40343654 386.65763937 220.77171757 386.65091138 218.13999939 386.64389038 C212.61944425 386.6310982 207.09893709 386.62812568 201.57836914 386.62939453 C195.19748272 386.63059638 188.81693431 386.6094866 182.43613344 386.5779072 C176.29744704 386.54860859 170.15892291 386.54141823 164.02017021 386.54261398 C161.40821387 386.54024909 158.79625519 386.53137602 156.18434334 386.51594925 C152.53544966 386.49641464 148.88743235 386.50207858 145.23852539 386.51416016 C144.15423248 386.50292114 143.06993958 386.49168213 141.95278931 386.48010254 C136.26789091 386.44227182 136.26789091 386.44227182 131.28977966 388.86630249 Z " fill="#5B3B8D" transform="translate(220,47)"/>
<path d="M0 0 C8.58 0 17.16 0 26 0 C26 38.61 26 77.22 26 117 C19.73 118.32 13.46 119.64 7 121 C-2.91908865 125.37606852 -11.63392747 130.10116447 -20 137 C-20.63035156 137.51691406 -21.26070312 138.03382813 -21.91015625 138.56640625 C-35.14840303 150.59843465 -43.34202732 170.12956909 -44.3203125 187.70703125 C-45.02249415 208.61464153 -39.2451482 227.70800741 -25.265625 243.61328125 C-10.62935659 259.03183297 5.23682643 264.84736529 26 269 C26 307.61 26 346.22 26 386 C17.42 386 8.84 386 0 386 C-0.04898438 383.93878906 -0.09796875 381.87757813 -0.1484375 379.75390625 C-0.20412553 377.72825415 -0.25987883 375.70260332 -0.31738281 373.67700195 C-0.35535297 372.28352927 -0.3902577 370.88996919 -0.421875 369.49633789 C-0.55221354 358.07210151 -0.55221354 358.07210151 -3 347 C-6.80680714 343.49948768 -12.48945223 342.49092036 -17.375 341 C-26.85552454 338.03240268 -35.55505622 334.05433196 -44.27099609 329.29296875 C-49.79969968 326.34434501 -49.79969968 326.34434501 -55.88671875 326.9296875 C-58.7951258 328.86375994 -61.07215046 330.69238197 -63.4375 333.25 C-66.2577593 336.20935372 -69.0827338 339.02711828 -72.1875 341.6875 C-75.63203868 344.64193398 -78.83132522 347.75210835 -82 351 C-85.40353022 349.52877384 -87.61255749 347.63057487 -90.21777344 345.00927734 C-91.03832214 344.18857758 -91.85887085 343.36787781 -92.70428467 342.52230835 C-93.58046448 341.63580597 -94.45664429 340.74930359 -95.359375 339.8359375 C-96.26375305 338.92872955 -97.1681311 338.02152161 -98.09991455 337.08682251 C-100.49796458 334.68115581 -102.88994618 332.26954264 -105.28070068 329.85662842 C-107.72385171 327.39297656 -110.17271206 324.93501423 -112.62109375 322.4765625 C-117.41933788 317.65626427 -122.21182732 312.83030157 -127 308 C-123.88348663 303.73234973 -120.83803901 299.57008694 -117.01953125 295.89453125 C-116.33052734 295.22099609 -115.64152344 294.54746094 -114.93164062 293.85351562 C-114.23232422 293.17998047 -113.53300781 292.50644531 -112.8125 291.8125 C-106.43427767 286.10864504 -106.43427767 286.10864504 -102 279 C-102.10481987 273.37248321 -104.19984243 269.41038953 -107 264.6875 C-111.87490737 256.08658021 -114.94980617 247.05837962 -117.90429688 237.6472168 C-118.25169922 236.56996338 -118.59910156 235.49270996 -118.95703125 234.3828125 C-119.25585205 233.41746582 -119.55467285 232.45211914 -119.86254883 231.45751953 C-121.23965086 228.48222245 -122.06907594 227.48358374 -125 226 C-127.81260959 225.60777651 -130.44233034 225.37336863 -133.265625 225.26953125 C-133.96929199 225.23323608 -134.67295898 225.19694092 -135.39794922 225.1595459 C-138.01458313 225.02865785 -140.63238407 224.92200596 -143.25 224.8125 C-149.1075 224.544375 -154.965 224.27625 -161 224 C-161 203.54 -161 183.08 -161 162 C-143.3125 161.3125 -143.3125 161.3125 -137.75512695 161.1340332 C-136.29109032 161.06649874 -134.8271336 160.99719892 -133.36328125 160.92578125 C-132.6115564 160.90817749 -131.85983154 160.89057373 -131.08532715 160.87243652 C-127.21504054 160.66044498 -125.195752 160.15083557 -122.09741211 157.76342773 C-120.04464182 155.05881746 -119.0131881 153.09557931 -118.078125 149.859375 C-117.77914307 148.8789624 -117.48016113 147.8985498 -117.17211914 146.88842773 C-116.86781982 145.85274658 -116.56352051 144.81706543 -116.25 143.75 C-113.56852609 135.10722745 -110.49463996 127.23722038 -105.88183594 119.44238281 C-103.45320638 115.2706763 -102.11506914 111.85591765 -102 107 C-102.92360135 104.68852735 -102.92360135 104.68852735 -104.6875 102.8125 C-105.32945313 102.05710937 -105.97140625 101.30171875 -106.6328125 100.5234375 C-109.8498244 97.09408159 -113.15298737 93.75482282 -116.55932617 90.51293945 C-120.66550268 86.55348489 -123.45384488 82.72820682 -127 78 C-112.81 63.81 -98.62 49.62 -84 35 C-80.10864835 36.94567583 -78.21762774 38.60173421 -75.25 41.6875 C-71.00087374 46.02410827 -66.63021064 50.07829142 -62 54 C-61.443125 54.49628906 -60.88625 54.99257812 -60.3125 55.50390625 C-56.61518621 58.76738932 -56.61518621 58.76738932 -52 60 C-49.16264548 59.03218035 -49.16264548 59.03218035 -46.15234375 57.46484375 C-44.99790771 56.90531006 -43.84347168 56.34577637 -42.65405273 55.76928711 C-42.04681366 55.46973114 -41.43957458 55.17017517 -40.81393433 54.86154175 C-30.98074399 50.01923085 -21.24443592 45.61029675 -10.59936523 42.82592773 C-7.68022446 42.03295515 -5.3871787 41.3308618 -3.06640625 39.34765625 C0.34513173 31.8372741 -0.6784859 22.06710163 -0.4375 14 C-0.39421865 12.63931211 -0.35060161 11.27863485 -0.30664062 9.91796875 C-0.20113362 6.61208263 -0.10011889 3.30605368 0 0 Z " fill="#5F3A8D" transform="translate(183,63)"/>
<path d="M0 0 C4.04051449 2.02025725 6.65505423 4.37231566 9.77832031 7.51953125 C10.34461151 8.08231781 10.91090271 8.64510437 11.49435425 9.22494507 C13.36066702 11.08247044 15.21958718 12.94719782 17.078125 14.8125 C18.37248975 16.10551762 19.66715128 17.39823822 20.96209717 18.69067383 C23.67200778 21.39763755 26.37827154 24.10818211 29.08203125 26.82128906 C32.55463671 30.30531153 36.03617321 33.78024903 39.52046585 37.25257874 C42.1936971 39.91859914 44.86216643 42.58934468 47.52919769 45.26156616 C48.81160248 46.54530841 50.09550367 47.82755756 51.38089752 49.10830688 C53.17189072 50.89424516 54.95638758 52.68642648 56.73925781 54.48046875 C57.27531647 55.01247894 57.81137512 55.54448914 58.36367798 56.09262085 C62 59.77146851 62 59.77146851 62 62 C41.54 62 21.08 62 0 62 C0 41.54 0 21.08 0 0 Z " fill="#943890" transform="translate(420,56)"/>
<path d="M0 0 C18.81 0 37.62 0 57 0 C53.13609192 4.50789276 49.33926648 8.79767029 45.125 12.9375 C44.62742187 13.43056641 44.12984375 13.92363281 43.6171875 14.43164062 C42.41379715 15.62345992 41.20724635 16.81208678 40 18 C37.74370103 16.90747629 35.74608279 15.82157169 33.6875 14.375 C30.18013969 12.58053659 27.90213548 12.5892489 24 13 C19.9061861 14.57454381 16.99090375 16.0181925 15 20 C13.93751703 24.31582231 13.47982078 27.60645715 15.05859375 31.8359375 C17.54100856 35.88172421 20.55130867 38.95117171 23.9375 42.25 C24.55818359 42.87390625 25.17886719 43.4978125 25.81835938 44.140625 C30.00326294 48.27650414 32.76922081 50.7805791 38.8125 51.375 C45.36252842 51.1687954 49.45031826 47.69270488 53.875 43.25 C54.73738281 42.32960938 54.73738281 42.32960938 55.6171875 41.390625 C56.30167969 40.70226562 56.30167969 40.70226562 57 40 C57.33 40 57.66 40 58 40 C58 46.27 58 52.54 58 59 C38.86 59 19.72 59 0 59 C0 39.53 0 20.06 0 0 Z " fill="#4F3B8C" transform="translate(261,278)"/>
<path d="M0 0 C18.81 0 37.62 0 57 0 C53.13609192 4.50789276 49.33926648 8.79767029 45.125 12.9375 C44.62742187 13.43056641 44.12984375 13.92363281 43.6171875 14.43164062 C42.41379715 15.62345992 41.20724635 16.81208678 40 18 C39.23816406 17.47599609 39.23816406 17.47599609 38.4609375 16.94140625 C33.72434637 13.8102889 29.87970694 11.27538547 23.9921875 12.375 C20.21618698 13.4896865 17.66197088 14.81523364 15.4375 18.125 C13.38925262 22.50751129 13.40765602 26.4594548 15 31 C16.97015094 34.05671903 19.40811211 36.46415293 22 39 C22.82886719 39.87527344 23.65773438 40.75054687 24.51171875 41.65234375 C29.93934042 47.54648461 29.93934042 47.54648461 37 51 C43.59021772 51.10803636 46.51794169 49.28918337 51.23828125 44.7890625 C52.37681377 43.63285874 53.50049531 42.46175443 54.60546875 41.2734375 C56 40 56 40 58 40 C58 45.94 58 51.88 58 58 C38.86 58 19.72 58 0 58 C0 38.86 0 19.72 0 0 Z " fill="#6D3A8D" transform="translate(261,181)"/>
<path d="M0 0 C18.81 0 37.62 0 57 0 C53.13609192 4.50789276 49.33926648 8.79767029 45.125 12.9375 C44.62742187 13.43056641 44.12984375 13.92363281 43.6171875 14.43164062 C42.41379715 15.62345992 41.20724635 16.81208678 40 18 C39.30777344 17.45859375 39.30777344 17.45859375 38.6015625 16.90625 C33.86745025 13.53810689 30.17593581 12.20233567 24.3359375 12.5078125 C19.75296328 13.4734559 17.36155512 16.14333392 14.625 19.875 C13.43001357 23.93795386 13.14615217 27.22412637 15.02734375 31.13671875 C20.0930699 39.17733117 27.45842662 48.40120168 37 51 C41.06591771 51.5171911 43.82064599 50.83211154 47.17578125 48.46484375 C49.8065508 46.19959245 52.24213128 43.81503157 54.60546875 41.2734375 C56 40 56 40 58 40 C58 45.94 58 51.88 58 58 C38.86 58 19.72 58 0 58 C0 38.86 0 19.72 0 0 Z " fill="#313B8D" transform="translate(261,376)"/>
<path d="M0 0 C18.81 0 37.62 0 57 0 C53.13609192 4.50789276 49.33926648 8.79767029 45.125 12.9375 C44.62742187 13.43056641 44.12984375 13.92363281 43.6171875 14.43164062 C42.41379715 15.62345992 41.20724635 16.81208678 40 18 C37.74902529 16.91234415 35.78471242 15.84451453 33.75 14.375 C30.12390983 12.56195491 26.93571814 12.3131786 23 13 C19.34195976 14.79451031 17.43888108 16.39122948 15.0625 19.6875 C13.6314628 24.14896892 13.52065569 27.53146512 15 32 C16.97567234 35.05118628 19.40839848 37.46620372 22 40 C23.13308594 41.20269531 23.13308594 41.20269531 24.2890625 42.4296875 C29.04746756 47.41089413 32.32308565 50.59145396 39.375 51.375 C46.641578 50.62328503 50.82322988 46.50704614 55.6171875 41.390625 C56.30167969 40.70226562 56.30167969 40.70226562 57 40 C57.33 40 57.66 40 58 40 C58 45.94 58 51.88 58 58 C38.86 58 19.72 58 0 58 C0 38.86 0 19.72 0 0 Z " fill="#8C398D" transform="translate(261,83)"/>
<path d="M0 0 C0.67333984 1.77734375 0.67333984 1.77734375 1 4 C-0.06005859 5.75390625 -0.06005859 5.75390625 -1.7734375 7.5625 C-2.42280273 8.25730469 -3.07216797 8.95210938 -3.74121094 9.66796875 C-4.48661133 10.43753906 -5.23201172 11.20710938 -6 12 C-6.81500977 12.86238281 -7.63001953 13.72476562 -8.46972656 14.61328125 C-11.16062668 17.43697904 -13.88808898 20.22092368 -16.625 23 C-17.09035156 23.4842041 -17.55570312 23.9684082 -18.03515625 24.46728516 C-19.39918264 25.88592959 -20.78140166 27.28701115 -22.1640625 28.6875 C-22.97311035 29.51636719 -23.7821582 30.34523438 -24.61572266 31.19921875 C-27 33 -27 33 -29.59179688 33.4362793 C-33.79632734 32.67457046 -35.98140027 29.77972007 -38.875 26.8125 C-39.78378906 25.9452832 -39.78378906 25.9452832 -40.7109375 25.06054688 C-42.3272317 23.43506918 -43.75434401 21.92494758 -45 20 C-44.8828125 17.07421875 -44.8828125 17.07421875 -44 15 C-38.73789902 15.62926338 -36.68328979 17.97352312 -33.16015625 21.69921875 C-30.99823464 23.33839529 -30.99823464 23.33839529 -28.17993164 22.38061523 C-24.56227714 20.80995603 -22.66429206 19.06674283 -19.9609375 16.2109375 C-19.05085938 15.26992188 -18.14078125 14.32890625 -17.203125 13.359375 C-16.25921842 12.36572022 -15.31652163 11.3709149 -14.375 10.375 C-12.51910808 8.41269516 -10.65118145 6.46519544 -8.7734375 4.5234375 C-7.95278809 3.65638184 -7.13213867 2.78932617 -6.28662109 1.89599609 C-4 0 -4 0 0 0 Z " fill="#4F3B8C" transform="translate(330,286)"/>
<path d="M0 0 C1.67211914 0.80834961 1.67211914 0.80834961 2.32743835 2.6125946 C2.44118301 3.33719376 2.55492767 4.06179291 2.67211914 4.80834961 C0.715872 7.27388596 -1.20246838 9.38301366 -3.43334961 11.57788086 C-4.06896317 12.21827805 -4.70457672 12.85867523 -5.35945129 13.51847839 C-6.70777124 14.87020353 -8.06243685 16.21562387 -9.42285156 17.55517578 C-11.50733151 19.61290356 -13.56383818 21.69589426 -15.61889648 23.78295898 C-16.93044731 25.09120583 -18.24354829 26.39790083 -19.55834961 27.70288086 C-20.17518112 28.32983353 -20.79201263 28.95678619 -21.42753601 29.60273743 C-23.19580078 31.32324219 -23.19580078 31.32324219 -26.32788086 33.80834961 C-31.22203605 33.18372791 -33.80313637 29.84765133 -37.14038086 26.49584961 C-37.75075195 25.91383789 -38.36112305 25.33182617 -38.98999023 24.73217773 C-39.56168945 24.16305664 -40.13338867 23.59393555 -40.72241211 23.00756836 C-41.24681885 22.49025146 -41.77122559 21.97293457 -42.31152344 21.43994141 C-43.32788086 19.80834961 -43.32788086 19.80834961 -43.17822266 17.67089844 C-42.89760986 17.05625732 -42.61699707 16.44161621 -42.32788086 15.80834961 C-41.33788086 15.47834961 -40.34788086 15.14834961 -39.32788086 14.80834961 C-37.32006836 16.20678711 -37.32006836 16.20678711 -35.20288086 18.18334961 C-34.14713867 19.15401367 -34.14713867 19.15401367 -33.07006836 20.14428711 C-32.14850673 21.02452311 -31.2290166 21.90721387 -30.32788086 22.80834961 C-28.01453308 23.31680996 -28.01453308 23.31680996 -25.32788086 22.80834961 C-23.31355386 21.17007544 -21.68729966 19.63546424 -19.94897461 17.74194336 C-19.45502701 17.22906265 -18.96107941 16.71618195 -18.4521637 16.1877594 C-16.87733408 14.55192908 -15.31971044 12.90115651 -13.76538086 11.24584961 C-11.71587411 9.0636478 -9.65059851 6.89831912 -7.57397461 4.74194336 C-7.1072081 4.23368515 -6.64044159 3.72542694 -6.15953064 3.20176697 C-2.84663014 -0.23435812 -2.84663014 -0.23435812 0 0 Z " fill="#6E3A8C" transform="translate(328.327880859375,188.191650390625)"/>
<path d="M0 0 C0.65432739 1.804245 0.65432739 1.804245 1 4 C-0.94410159 6.46597581 -2.85012444 8.57419992 -5.0703125 10.76953125 C-5.70355438 11.40992844 -6.33679626 12.05032562 -6.98922729 12.71012878 C-8.33324634 14.06193897 -9.68372031 15.40735709 -11.04003906 16.74682617 C-13.11538745 18.80297637 -15.15979311 20.88669659 -17.203125 22.97460938 C-18.51124904 24.2830238 -19.82109016 25.58972425 -21.1328125 26.89453125 C-21.74448273 27.52148392 -22.35615295 28.14843658 -22.98635864 28.79438782 C-27.29738255 32.98951598 -27.29738255 32.98951598 -30.73242188 33.04077148 C-34.31209175 31.39777701 -36.63193284 29.02611616 -39.375 26.25 C-39.93316406 25.7240625 -40.49132812 25.198125 -41.06640625 24.65625 C-42.6484375 23.078125 -42.6484375 23.078125 -45 20 C-44.8515625 17.109375 -44.8515625 17.109375 -44 15 C-40.18819387 15.22422389 -38.47059512 16.30576651 -35.9375 19 C-35.47214844 19.53625 -35.00679688 20.0725 -34.52734375 20.625 C-32.64083968 22.32333615 -31.52087562 22.7262671 -29 23 C-27.04346736 21.88561869 -27.04346736 21.88561869 -25.26171875 20.08984375 C-24.21830322 19.11700439 -24.21830322 19.11700439 -23.15380859 18.12451172 C-18.9239942 13.95223278 -14.7975978 9.68205409 -10.73632812 5.34570312 C-10.06666016 4.65541016 -9.39699219 3.96511719 -8.70703125 3.25390625 C-8.1138208 2.62814697 -7.52061035 2.0023877 -6.90942383 1.35766602 C-4.47849004 -0.37081152 -2.91766537 -0.26158812 0 0 Z " fill="#8C368C" transform="translate(330,91)"/>
<path d="M0 0 C1.07894531 0.14888672 1.07894531 0.14888672 2.1796875 0.30078125 C2.83500671 2.10502625 2.83500671 2.10502625 3.1796875 4.30078125 C1.22344036 6.7663176 -0.69490002 8.8754453 -2.92578125 11.0703125 C-3.56139481 11.71070969 -4.19700836 12.35110687 -4.85188293 13.01091003 C-6.20020288 14.36263517 -7.5548685 15.70805551 -8.9152832 17.04760742 C-10.99976315 19.1053352 -13.05626982 21.1883259 -15.11132812 23.27539062 C-16.42287895 24.58363747 -17.73597993 25.89033247 -19.05078125 27.1953125 C-19.66761276 27.82226517 -20.28444427 28.44921783 -20.91996765 29.09516907 C-22.68823242 30.81567383 -22.68823242 30.81567383 -25.8203125 33.30078125 C-30.71446769 32.67615955 -33.29556801 29.34008297 -36.6328125 25.98828125 C-37.24318359 25.40626953 -37.85355469 24.82425781 -38.48242188 24.22460938 C-39.05412109 23.65548828 -39.62582031 23.08636719 -40.21484375 22.5 C-40.73925049 21.98268311 -41.26365723 21.46536621 -41.80395508 20.93237305 C-42.8203125 19.30078125 -42.8203125 19.30078125 -42.4831543 17.10083008 C-42.2644165 16.50681396 -42.04567871 15.91279785 -41.8203125 15.30078125 C-39.7578125 14.86328125 -39.7578125 14.86328125 -36.8203125 15.30078125 C-34.93691834 17.01256774 -33.30208313 18.82245012 -31.6640625 20.76953125 C-29.91532826 22.480769 -29.91532826 22.480769 -27.52539062 22.69726562 C-23.66294837 22.13114593 -22.34108927 20.31175945 -19.6953125 17.48828125 C-19.22593262 16.99996826 -18.75655273 16.51165527 -18.27294922 16.00854492 C-16.77612759 14.45074536 -15.29656032 12.87807602 -13.8203125 11.30078125 C-11.87645319 9.22386769 -9.9166288 7.1641134 -7.9453125 5.11328125 C-6.64980469 3.73076172 -6.64980469 3.73076172 -5.328125 2.3203125 C-2.8203125 0.30078125 -2.8203125 0.30078125 0 0 Z " fill="#313A8C" transform="translate(327.8203125,383.69921875)"/>
</svg>
